<?xml version="1.0" encoding="utf-8"?>
<!-- Generator: Adobe Illustrator 27.5.0, SVG Export Plug-In . SVG Version: 6.00 Build 0)  -->
<svg version="1.1" id="Layer_1" xmlns="http://www.w3.org/2000/svg" xmlns:xlink="http://www.w3.org/1999/xlink" x="0px" y="0px"
	 viewBox="0 0 358.239 306.175" style="enable-background:new 0 0 358.239 306.175;" xml:space="preserve">
<g>
	<g>
		<path style="fill:#FFFEF0;" d="M349.153,132.943c-6.733-30.731-22.256-60.661-43.514-80.302
			c-56.328-52.043-151.7-64.763-217.507-23.516C74.083,37.93,61.199,49.553,51.61,63.129c-6.383,9.038-11.699,18.765-17.893,27.926
			c-6.28,9.289-14.92,16.869-20.446,26.635c-7.792,13.772-8.264,30.394-7.755,46.209c0.995,30.896,5.852,70.49,34.911,88.272
			c8.719,5.335,18.365,8.972,27.317,13.905c14.849,8.182,27.675,19.867,43.104,26.896c28.386,12.931,60.418,8.261,90.338,5.284
			c30.684-3.053,62.358-10.617,89.208-26.183c31.594-18.317,55.184-50.204,60.976-86.505
			C354.014,169.003,353.074,150.837,349.153,132.943z"/>
		<path style="fill:#EDEDEE;" d="M253.508,108.069c-5.639-6.945-12.639-12.687-20.295-17.279
			c-7.855-4.711-16.382-8.246-25.162-10.821c-8.734-2.561-17.744-4.189-26.814-4.926c-10.813-0.879-21.703-0.168-32.245,2.464
			c-11.036,2.755-21.534,7.63-30.396,14.812c-3.122,2.53-5.94,5.368-8.478,8.434c-3.896,6.026-7.259,12.398-9.89,19.069
			c-3.959,10.038-6.254,20.747-6.262,31.557c-0.008,11.365,2.624,22.423,7.242,32.777c3.986,8.938,9.472,17.188,16.233,24.268
			c6.511,6.819,14.153,12.519,22.52,16.861c8.415,4.367,17.536,7.337,26.896,8.835c9.652,1.545,19.564,1.504,29.21-0.066
			c9.572-1.558,18.946-4.49,27.591-8.901c8.156-4.161,15.647-9.603,22.053-16.149c6.22-6.355,11.382-13.726,15.183-21.767
			c3.877-8.201,6.304-17.082,7.156-26.112c0.904-9.577,0.056-19.269-2.311-28.585C263.464,123.59,259.334,115.243,253.508,108.069z"
			/>
		<path style="fill:#EDEDEE;" d="M349.153,132.943c-6.733-30.731-22.256-60.661-43.514-80.302
			c-56.328-52.043-151.7-64.763-217.507-23.516C74.083,37.93,61.199,49.552,51.61,63.129c-6.383,9.038-11.699,18.765-17.893,27.926
			c-6.28,9.289-14.92,16.869-20.446,26.635c-7.792,13.772-8.264,30.394-7.755,46.209c0.995,30.896,5.852,70.49,34.911,88.272
			c8.719,5.335,18.365,8.971,27.317,13.905c14.849,8.182,27.675,19.867,43.104,26.896c28.386,12.931,60.418,8.261,90.337,5.284
			c30.684-3.053,62.359-10.617,89.208-26.183c31.594-18.317,55.184-50.204,60.976-86.505
			C354.014,169.003,353.074,150.837,349.153,132.943z M325.438,158.593c-3.204,9.423-3.43,19.219-2.483,29.04
			c0.812,8.419,1.938,16.741,1.369,25.221c-0.487,7.244-2.175,14.415-5.704,20.804c-3.936,7.126-9.953,12.694-16.325,17.632
			c-7.053,5.466-14.674,10.128-22.179,14.934c-7.356,4.711-14.508,9.677-22.512,13.264c-7.636,3.422-15.872,5.622-24.289,5.402
			c-8.58-0.224-16.796-2.971-25.325-3.54c-4.332-0.289-8.657,0.132-12.798,1.471c-4.375,1.415-8.589,3.171-13.071,4.268
			c-7.617,1.865-15.344,1.997-23.03,0.446c-4.052-0.817-7.954-2.263-12.05-2.852c-3.619-0.521-7.282-0.594-10.918-0.954
			c-3.327-0.33-6.664-0.906-9.72-2.317c-3.286-1.517-5.732-3.949-7.95-6.757c-3.947-4.995-6.798-10.762-10.821-15.694
			c-4.726-5.794-11.347-9.364-18.826-10.038c-9.319-0.839-18.608,1.786-27.644-1.66c-6.885-2.625-10.822-8.935-16.29-13.479
			c-5.554-4.615-11.44-8.779-16.328-14.147c-4.867-5.345-8.717-11.812-10.667-18.802c-2.293-8.221-2.794-16.86-3.172-25.345
			c-0.194-4.346-0.327-8.695-0.584-13.037c-0.243-4.116-0.805-8.199-1.075-12.31c-0.469-7.141,0.176-14.358,2.655-21.108
			c2.595-7.069,6.975-13.369,11.952-18.967c5.148-5.791,11.529-10.389,16.374-16.463c4.841-6.071,7.188-13.843,10.454-20.801
			c1.893-4.032,4.091-7.824,6.677-11.342c0.531-0.98,1.089-1.947,1.709-2.882c6.61-9.978,17.383-15.52,28.116-20.023
			c6.364-2.67,12.806-5.14,19.141-7.88c7.936-3.433,16.22-6.116,24.723-7.723c8.489-1.605,17.23-2.149,25.819-1.058
			c8.575,1.089,16.292,4.198,24.151,7.628c3.883,1.695,7.802,3.327,11.893,4.454c4.617,1.271,9.424,1.811,14.191,2.147
			c9.778,0.688,19.626,0.145,29.37,1.359c8.059,1.003,15.852,3.346,22.993,7.238c6.516,3.55,12.352,8.233,17.59,13.467
			c5.271,5.266,9.959,11.082,14.411,17.046c2.28,3.055,4.482,6.166,6.702,9.264c2.313,3.227,4.909,6.263,7.379,9.371
			c9.559,12.027,19.89,25.439,21.421,41.269C331.581,143.531,328.07,150.849,325.438,158.593z"/>
		<path style="fill:#EDEDEE;" d="M339.546,209.667c-8.574,14.707-17.517,29.259-29.97,41.05
			c-12.89,12.205-28.307,21.41-44.871,27.69c-16.727,6.342-34.411,9.789-52.144,11.797c-4.729,0.536-9.481,0.866-14.198,1.508
			c-4.846,0.66-9.662,1.527-14.473,2.406c-9.468,1.73-18.964,3.558-28.589,4.132c-9.235,0.551-18.684-0.128-27.419-3.366
			c-9.357-3.468-18.195-8.28-26.991-12.946c-4.444-2.358-9.09-4.481-13.387-7.095c-3.782-2.301-7.307-4.989-10.765-7.746
			c-3.688-2.94-7.309-5.971-11.156-8.706c-3.633-2.583-7.494-4.771-11.45-6.816c-7.225-3.735-14.743-7.013-21.397-11.749
			c-6.832-4.863-12.284-11.092-16.104-18.556c-2.407-4.703-4.297-9.596-5.935-14.581c4.638,18.452,13.328,35.443,29.733,45.482
			c8.719,5.335,18.365,8.971,27.317,13.905c14.849,8.182,27.675,19.867,43.104,26.896c28.386,12.931,60.418,8.261,90.337,5.284
			c30.684-3.053,62.359-10.617,89.208-26.183c31.594-18.317,55.184-50.204,60.976-86.505c0.211-1.322,0.391-2.657,0.556-3.998
			C348.915,191.348,344.744,200.751,339.546,209.667z"/>
		
			<ellipse transform="matrix(0.7071 -0.7071 0.7071 0.7071 -54.3986 170.5526)" style="fill:#F69C45;" cx="178.676" cy="150.941" rx="76.708" ry="76.708"/>
		<path style="opacity:0.53;fill:#FFD775;" d="M129.574,154.667c-0.7-0.615-1.5-1.095-2.399-1.345
			c-6.356-1.769-9.065,7.893-5.708,11.924c3.09,3.712,9.799,4.374,11.381-1.047c0.695-2.381-0.036-4.983-1.31-7.111
			C131.006,156.2,130.351,155.35,129.574,154.667z"/>
		<path style="opacity:0.53;fill:#FFD775;" d="M183.909,95.017c-7.957-4.477-17.191-5.399-25.854-2.452
			c-6.975,2.373-13.099,6.832-18.276,12.074c-8.585,8.693-19.323,27.013-7.805,37.707c2.718,2.524,6.275,3.928,9.867,4.659
			c7.34,1.493,15.003,0.148,22.083-1.979c7.711-2.316,15.266-5.84,21.606-10.852c8.71-6.886,15.776-20.737,8.147-30.733
			C191.056,100.007,187.691,97.145,183.909,95.017z"/>
		<path style="opacity:0.59;fill:#F69C45;" d="M178.676,74.234c-42.365,0-76.708,34.343-76.708,76.707
			c0,42.364,34.343,76.708,76.708,76.708c42.364,0,76.708-34.343,76.708-76.708C255.383,108.577,221.04,74.234,178.676,74.234z
			 M177.375,200.612c-36.653,0-66.367-25.91-66.367-57.871c0-31.961,29.713-57.871,66.367-57.871s66.367,25.91,66.367,57.871
			C243.742,174.702,214.029,200.612,177.375,200.612z"/>
	</g>
	<g>
		<path style="fill:#E7E7E8;" d="M75.312,79.852c-0.288-2.169-1.291-4.643-3.619-5.208c-1.566-0.38-3.185,0.515-4.292,1.547
			c-0.449,0.419-0.825,0.906-1.145,1.427c-0.2,0.196-0.389,0.408-0.564,0.639c-1.363,1.804-1.268,4.549-0.058,6.395
			c0.611,0.933,1.401,1.808,2.459,2.239c1.165,0.474,2.468,0.435,3.604-0.11C74.321,85.524,75.69,82.701,75.312,79.852z"/>
		<path style="fill:#E7E7E8;" d="M87.05,63.146c-1.103,0-2.122,0.626-2.536,1.683c-0.306,0.782-0.086,2.14,1.016,2.14
			c1.104,0,2.122-0.626,2.536-1.683C88.372,64.505,88.152,63.146,87.05,63.146z"/>
		<g>
			<path style="fill:#E7E7E8;" d="M297.121,116.307c-0.006,0.005-0.013,0.011-0.019,0.016c-0.006,0.013-0.005,0.019,0,0.022
				C297.109,116.333,297.115,116.32,297.121,116.307z"/>
			<path style="fill:#E7E7E8;" d="M297.298,116.166c-0.013,0.006-0.024,0.011-0.037,0.016c-0.014,0.012-0.022,0.024-0.037,0.036
				c0.014-0.002,0.026-0.006,0.04-0.009C297.275,116.197,297.286,116.181,297.298,116.166z"/>
			<path style="fill:#E7E7E8;" d="M300.277,109.651c-3.78-1.146-7.788,0.57-10.074,3.692c-1.127,1.539-1.802,3.666-1.578,5.604
				c-0.259,1.219-0.363,2.463-0.023,3.675c1.124,3.999,6.152,3.529,9.259,2.631c3.554-1.027,7.017-3.904,7.261-7.827
				C305.325,114.166,303.567,110.648,300.277,109.651z"/>
		</g>
		<path style="fill:#E7E7E8;" d="M306.377,138.798c-1.012,0-1.946,0.574-2.325,1.544c-0.28,0.717-0.079,1.963,0.931,1.963
			c1.012,0,1.946-0.574,2.325-1.544C307.589,140.044,307.387,138.798,306.377,138.798z"/>
		<path style="fill:#E7E7E8;" d="M324.361,120.137c-0.014-0.131-0.066-0.243-0.156-0.338c-0.091-0.17-0.228-0.294-0.413-0.371
			c-0.063-0.021-0.125-0.041-0.187-0.063c-0.016-0.005-0.031-0.01-0.047-0.016c-0.066-0.022-0.132-0.041-0.199-0.057
			c-0.198-0.076-0.404-0.093-0.618-0.051c-0.317,0.049-0.609,0.161-0.877,0.338c-0.15,0.092-0.287,0.202-0.411,0.331
			c-0.019,0.019-0.038,0.039-0.057,0.058c-0.104,0.126-0.208,0.252-0.313,0.378c-0.136,0.187-0.226,0.392-0.271,0.614
			c-0.054,0.131-0.074,0.267-0.061,0.407c-0.023,0.195,0.009,0.383,0.095,0.564c0.008,0.02,0.016,0.039,0.024,0.059
			c0.155,0.366,0.545,0.63,0.935,0.665c0.142-0.002,0.283-0.003,0.425-0.004c0.15-0.037,0.3-0.076,0.449-0.118
			c0.018-0.005,0.037-0.01,0.055-0.016c0.074-0.021,0.148-0.041,0.222-0.062c0.138-0.071,0.275-0.141,0.413-0.212
			c0.128-0.104,0.257-0.208,0.385-0.311c0.105-0.127,0.21-0.255,0.315-0.382c0.137-0.188,0.228-0.395,0.274-0.62
			c0.054-0.132,0.075-0.269,0.061-0.411C324.429,120.389,324.414,120.261,324.361,120.137z"/>
		<path style="fill:#E7E7E8;" d="M80.32,195.48c-0.722-0.934-1.52-1.745-2.5-2.408c-1.029-0.696-2.296-1.015-3.532-0.805
			c-1.587,0.27-2.939,1.26-3.852,2.563c-1.256,1.791-1.436,4.073-0.659,6.055c0.099,0.37,0.23,0.734,0.422,1.076
			c0.243,0.432,0.547,0.793,0.884,1.109c1.159,1.478,2.718,2.734,4.63,2.91c2.972,0.274,5.684-2.311,5.646-5.231
			c0.224-0.47,0.37-0.978,0.414-1.521C81.894,197.744,81.192,196.607,80.32,195.48z"/>
		<path style="fill:#E7E7E8;" d="M83.297,213.558c-0.014-0.132-0.067-0.245-0.158-0.341c-0.091-0.171-0.23-0.296-0.416-0.373
			c-0.109-0.045-0.218-0.09-0.327-0.135c-0.271-0.118-0.552-0.155-0.845-0.11c-0.33,0.051-0.635,0.168-0.914,0.353
			c-0.307,0.202-0.564,0.455-0.769,0.761c-0.151,0.207-0.251,0.434-0.3,0.681c-0.079,0.216-0.103,0.44-0.072,0.673
			c0.031,0.286,0.145,0.533,0.343,0.742c0.206,0.2,0.452,0.317,0.738,0.351c0.311,0.033,0.612-0.009,0.903-0.125
			c0.134-0.044,0.268-0.089,0.401-0.134c0.139-0.071,0.278-0.143,0.417-0.214c0.13-0.105,0.259-0.209,0.389-0.314
			c0.106-0.129,0.212-0.257,0.318-0.385c0.138-0.19,0.23-0.399,0.276-0.625c0.055-0.133,0.075-0.271,0.062-0.415
			C83.365,213.813,83.35,213.683,83.297,213.558z"/>
		<g>
			<path style="fill:#E7E7E8;" d="M201.5,244.847c0.054-0.04,0.098-0.074,0.158-0.11c-0.011,0.003-0.024,0.009-0.039,0.017
				C201.556,244.794,201.518,244.825,201.5,244.847z"/>
			<path style="fill:#E7E7E8;" d="M208.151,238.061c-1.047-1.182-2.666-1.901-4.226-2.029c-3.924-0.321-7.385,2.367-8.976,5.805
				c-0.764,1.651-1.019,3.817-0.009,5.425c0.794,1.262,2.01,2.173,3.447,2.524c1.192,0.642,2.655,0.786,3.974,0.603
				c3.678-0.508,7.047-3.585,7.32-7.392C209.81,241.195,209.368,239.435,208.151,238.061z"/>
		</g>
		<path style="fill:#E7E7E8;" d="M217.471,244.623c-0.007-0.033-0.013-0.066-0.02-0.099c-0.013-0.229-0.092-0.428-0.236-0.596
			c-0.103-0.194-0.26-0.335-0.471-0.423c-0.139-0.04-0.279-0.079-0.418-0.119c-0.241-0.035-0.474-0.012-0.7,0.067
			c-0.172,0.026-0.33,0.088-0.475,0.184c-0.256,0.111-0.482,0.27-0.676,0.476c-0.12,0.145-0.24,0.291-0.36,0.436
			c-0.195,0.288-0.321,0.604-0.378,0.947c-0.007,0.036-0.013,0.073-0.02,0.109c-0.018,0.098-0.011,0.164-0.014,0.284
			c-0.003,0.151-0.018,0.18,0.006,0.279c0.016,0.065,0.031,0.13,0.047,0.195c0.013,0.226,0.09,0.421,0.232,0.586
			c0.102,0.191,0.256,0.33,0.464,0.416c0.137,0.039,0.274,0.078,0.411,0.117c0.237,0.034,0.467,0.012,0.689-0.066
			c0.169-0.026,0.325-0.086,0.468-0.181c0.252-0.109,0.474-0.266,0.665-0.469c0.118-0.143,0.237-0.286,0.355-0.429
			c0.192-0.284,0.316-0.594,0.372-0.932c0.016-0.073,0.031-0.146,0.047-0.219C217.498,245.003,217.508,244.808,217.471,244.623z"/>
	</g>
</g>
</svg>
